# Blender v3.3.0 OBJ File: ''
# www.blender.org
mtllib burger.mtl
o Cube_Cube.001
v -0.887347 -0.392806 0.962449
v -0.580060 0.398739 0.580060
v -1.000000 -0.398739 -1.000000
v -0.580060 0.398739 -0.580060
v 0.962449 -0.392806 0.962449
v 0.580060 0.398739 0.580060
v 0.962449 -0.392806 -0.887347
v 0.580060 0.398739 -0.580060
v -1.000000 -0.082757 1.000000
v -1.000000 -0.082757 -1.000000
v 1.000000 -0.082757 -1.000000
v 0.962449 -0.100555 0.962449
v -0.580060 0.398739 0.000000
v 0.000000 0.398739 -0.580060
v 0.580060 0.398739 0.000000
v 0.000000 0.398739 0.580060
v 0.000000 0.682374 0.000000
v 0.000658 -0.395714 -0.942558
v 0.055869 -0.392806 0.962449
v 0.000658 -0.091832 0.980853
v 0.019806 -0.082757 -1.000000
v 0.017426 0.140165 0.879838
v 0.017426 0.140165 -0.879838
v 0.926108 0.005339 0.926108
v 0.879838 0.140165 0.535434
v 0.746578 0.255108 0.746578
v 0.535434 0.140165 0.879838
v -0.879838 0.140165 0.564098
v -0.944768 0.019708 0.944768
v -0.564098 0.140165 0.879838
v -0.757670 0.245541 0.757670
v 0.937605 0.032997 -0.937605
v 0.598929 0.140165 -0.879838
v 0.771147 0.233917 -0.771147
v 0.879838 0.140165 -0.598929
v -0.879838 0.140165 -0.651888
v -0.791638 0.216242 -0.791638
v -0.651888 0.140165 -0.879838
v -0.926715 0.053200 -0.926715
vt 0.474057 0.872524
vt 0.543940 0.872524
vt 0.543940 0.955142
vt 0.506178 1.000000
vt 0.474057 1.000000
vt 0.252476 0.500000
vt 0.375000 0.500000
vt 0.375000 0.750000
vt 0.252476 0.750000
vt 0.750000 0.625000
vt 0.875000 0.625000
vt 0.875000 0.750000
vt 0.750000 0.750000
vt 0.375000 0.872524
vt 0.375000 1.000000
vt 0.474057 0.500000
vt 0.474057 0.750000
vt 0.375000 0.377476
vt 0.474057 0.377476
vt 0.375000 0.000000
vt 0.474057 0.000000
vt 0.474057 0.250000
vt 0.375000 0.250000
vt 0.543940 0.282385
vt 0.567789 0.250000
vt 0.625000 0.250000
vt 0.625000 0.375000
vt 0.625000 0.500000
vt 0.573330 0.500000
vt 0.543940 0.460091
vt 0.543940 0.377476
vt 0.543940 0.539909
vt 0.625000 0.625000
vt 0.625000 0.750000
vt 0.579973 0.750000
vt 0.543940 0.701070
vt 0.506178 0.000000
vt 0.543940 0.044858
vt 0.543940 0.217615
vt 0.516678 0.250000
vt 0.750000 0.500000
vt 0.875000 0.500000
vt 0.576974 0.000000
vt 0.625000 0.000000
vt 0.625000 0.125000
vt 0.510344 0.500000
vt 0.125000 0.500000
vt 0.125000 0.750000
vt 0.504799 0.750000
vt 0.543940 0.798930
vt 0.576974 1.000000
vt 0.625000 0.875000
vt 0.625000 1.000000
vn 0.0123 0.4305 0.9025
vn 0.0015 -1.0000 0.0008
vn -0.2311 0.9451 0.2311
vn 0.0094 -0.0886 0.9960
vn 0.9981 -0.0604 0.0095
vn 0.0278 -0.2656 -0.9637
vn -0.9835 -0.1787 0.0282
vn 0.0000 0.7572 -0.6531
vn 0.6531 0.7572 -0.0000
vn -0.8803 0.4745 -0.0000
vn 0.2311 0.9451 0.2311
vn 0.2311 0.9451 -0.2311
vn -0.2311 0.9451 -0.2311
vn -0.6531 0.7572 -0.0000
vn -0.0000 0.4745 -0.8803
vn 0.0284 -0.0918 -0.9954
vn 0.0097 -0.0301 0.9995
vn 0.0015 -1.0000 0.0022
vn 0.4959 0.7129 0.4959
vn 0.0125 0.3680 0.9298
vn -0.4590 0.7606 0.4590
vn 0.0000 0.7572 0.6531
vn 0.4590 0.7606 -0.4590
vn 0.9159 0.4011 0.0122
vn -0.4590 0.7606 -0.4590
usemtl None
s off
f 20/1/1 22/2/1 30/3/1 29/4/1 9/5/1
f 18/6/2 7/7/2 5/8/2 19/9/2
f 17/10/3 13/11/3 2/12/3 16/13/3
f 19/14/4 20/1/4 9/5/4 1/15/4
f 7/7/5 11/16/5 12/17/5 5/8/5
f 18/18/6 21/19/6 11/16/6 7/7/6
f 1/20/7 9/21/7 10/22/7 3/23/7
f 38/24/8 37/25/8 4/26/8 14/27/8 8/28/8 34/29/8 33/30/8 23/31/8
f 35/32/9 34/29/9 8/28/9 15/33/9 6/34/9 26/35/9 25/36/9
f 9/21/10 29/37/10 28/38/10 36/39/10 39/40/10 10/22/10
f 15/33/11 17/10/11 16/13/11 6/34/11
f 8/28/12 14/41/12 17/10/12 15/33/12
f 14/41/13 4/42/13 13/11/13 17/10/13
f 28/38/14 31/43/14 2/44/14 13/45/14 4/26/14 37/25/14 36/39/14
f 21/19/15 23/31/15 33/30/15 32/46/15 11/16/15
f 3/23/16 10/22/16 21/19/16 18/18/16
f 5/8/17 12/17/17 20/1/17 19/14/17
f 3/47/18 18/6/18 19/9/18 1/48/18
f 24/49/19 25/36/19 26/35/19 27/50/19
f 12/17/20 24/49/20 27/50/20 22/2/20 20/1/20
f 28/38/21 29/37/21 30/3/21 31/51/21
f 27/50/22 26/35/22 6/34/22 16/52/22 2/53/22 31/51/22 30/3/22 22/2/22
f 32/46/23 33/30/23 34/29/23 35/32/23
f 11/16/24 32/46/24 35/32/24 25/36/24 24/49/24 12/17/24
f 36/39/25 37/25/25 38/24/25 39/40/25
f 10/22/15 39/40/15 38/24/15 23/31/15 21/19/15
o Cube.001_Cube.002
v -0.328093 0.423259 -0.432999
v -0.319830 0.386478 -0.411230
v -0.363414 0.429867 -0.408427
v -0.355152 0.393086 -0.386659
v -0.352158 0.400933 -0.461589
v -0.343896 0.364152 -0.439820
v -0.387480 0.407541 -0.437017
v -0.379217 0.370759 -0.415249
vt 0.375000 0.000000
vt 0.375000 0.250000
vt 0.625000 0.250000
vt 0.625000 0.000000
vt 0.375000 0.500000
vt 0.625000 0.500000
vt 0.375000 0.750000
vt 0.625000 0.750000
vt 0.375000 1.000000
vt 0.625000 1.000000
vt 0.125000 0.500000
vt 0.125000 0.750000
vt 0.875000 0.750000
vt 0.875000 0.500000
vn 0.5528 0.5129 0.6568
vn -0.8114 0.1518 0.5645
vn -0.5528 -0.5129 -0.6568
vn 0.8114 -0.1518 -0.5645
vn -0.1898 0.8449 -0.5001
vn 0.1898 -0.8449 0.5001
usemtl None
s off
f 40/54/26 42/55/26 43/56/26 41/57/26
f 42/55/27 46/58/27 47/59/27 43/56/27
f 46/58/28 44/60/28 45/61/28 47/59/28
f 44/60/29 40/62/29 41/63/29 45/61/29
f 42/64/30 40/65/30 44/60/30 46/58/30
f 47/59/31 45/61/31 41/66/31 43/67/31
o Cube.002_Cube.003
v 0.008190 0.423259 -0.613229
v 0.016453 0.386478 -0.591461
v -0.027131 0.429867 -0.588657
v -0.018868 0.393086 -0.566889
v -0.015875 0.400933 -0.641819
v -0.007613 0.364152 -0.620051
v -0.051196 0.407541 -0.617247
v -0.042934 0.370759 -0.595479
vt 0.375000 0.000000
vt 0.375000 0.250000
vt 0.625000 0.250000
vt 0.625000 0.000000
vt 0.375000 0.500000
vt 0.625000 0.500000
vt 0.375000 0.750000
vt 0.625000 0.750000
vt 0.375000 1.000000
vt 0.625000 1.000000
vt 0.125000 0.500000
vt 0.125000 0.750000
vt 0.875000 0.750000
vt 0.875000 0.500000
vn 0.5528 0.5129 0.6568
vn -0.8114 0.1518 0.5645
vn -0.5528 -0.5129 -0.6568
vn 0.8114 -0.1518 -0.5645
vn -0.1898 0.8449 -0.5001
vn 0.1898 -0.8449 0.5001
usemtl None
s off
f 48/68/32 50/69/32 51/70/32 49/71/32
f 50/69/33 54/72/33 55/73/33 51/70/33
f 54/72/34 52/74/34 53/75/34 55/73/34
f 52/74/35 48/76/35 49/77/35 53/75/35
f 50/78/36 48/79/36 52/74/36 54/72/36
f 55/73/37 53/75/37 49/80/37 51/81/37
o Cube.003_Cube.004
v 0.157650 0.423259 -0.406624
v 0.165912 0.386478 -0.384855
v 0.122328 0.429867 -0.382052
v 0.130591 0.393086 -0.360284
v 0.133584 0.400933 -0.435214
v 0.141846 0.364152 -0.413445
v 0.098263 0.407541 -0.410642
v 0.106525 0.370759 -0.388874
vt 0.375000 0.000000
vt 0.375000 0.250000
vt 0.625000 0.250000
vt 0.625000 0.000000
vt 0.375000 0.500000
vt 0.625000 0.500000
vt 0.375000 0.750000
vt 0.625000 0.750000
vt 0.375000 1.000000
vt 0.625000 1.000000
vt 0.125000 0.500000
vt 0.125000 0.750000
vt 0.875000 0.750000
vt 0.875000 0.500000
vn 0.5528 0.5129 0.6568
vn -0.8114 0.1518 0.5645
vn -0.5528 -0.5129 -0.6568
vn 0.8114 -0.1518 -0.5644
vn -0.1898 0.8449 -0.5001
vn 0.1898 -0.8449 0.5001
usemtl None
s off
f 56/82/38 58/83/38 59/84/38 57/85/38
f 58/83/39 62/86/39 63/87/39 59/84/39
f 62/86/40 60/88/40 61/89/40 63/87/40
f 60/88/41 56/90/41 57/91/41 61/89/41
f 58/92/42 56/93/42 60/88/42 62/86/42
f 63/87/43 61/89/43 57/94/43 59/95/43
o Cube.004_Cube.005
v -0.086321 0.423259 -0.184633
v -0.078058 0.386478 -0.162864
v -0.121642 0.429867 -0.160061
v -0.113379 0.393086 -0.138293
v -0.110386 0.400933 -0.213223
v -0.102124 0.364152 -0.191454
v -0.145707 0.407541 -0.188651
v -0.137445 0.370759 -0.166883
vt 0.375000 0.000000
vt 0.375000 0.250000
vt 0.625000 0.250000
vt 0.625000 0.000000
vt 0.375000 0.500000
vt 0.625000 0.500000
vt 0.375000 0.750000
vt 0.625000 0.750000
vt 0.375000 1.000000
vt 0.625000 1.000000
vt 0.125000 0.500000
vt 0.125000 0.750000
vt 0.875000 0.750000
vt 0.875000 0.500000
vn 0.5528 0.5129 0.6568
vn -0.8114 0.1518 0.5645
vn -0.5528 -0.5129 -0.6568
vn 0.8114 -0.1518 -0.5645
vn -0.1898 0.8449 -0.5001
vn 0.1898 -0.8449 0.5001
usemtl None
s off
f 64/96/44 66/97/44 67/98/44 65/99/44
f 66/97/45 70/100/45 71/101/45 67/98/45
f 70/100/46 68/102/46 69/103/46 71/101/46
f 68/102/47 64/104/47 65/105/47 69/103/47
f 66/106/48 64/107/48 68/102/48 70/100/48
f 71/101/49 69/103/49 65/108/49 67/109/49
o Cube.005_Cube.006
v -0.139071 0.423259 0.118682
v -0.130809 0.386478 0.140450
v -0.174392 0.429867 0.143253
v -0.166130 0.393086 0.165021
v -0.163136 0.400933 0.090092
v -0.154874 0.364152 0.111860
v -0.198458 0.407541 0.114663
v -0.190195 0.370759 0.136431
vt 0.375000 0.000000
vt 0.375000 0.250000
vt 0.625000 0.250000
vt 0.625000 0.000000
vt 0.375000 0.500000
vt 0.625000 0.500000
vt 0.375000 0.750000
vt 0.625000 0.750000
vt 0.375000 1.000000
vt 0.625000 1.000000
vt 0.125000 0.500000
vt 0.125000 0.750000
vt 0.875000 0.750000
vt 0.875000 0.500000
vn 0.5528 0.5129 0.6568
vn -0.8114 0.1518 0.5645
vn -0.5528 -0.5129 -0.6568
vn 0.8114 -0.1518 -0.5644
vn -0.1898 0.8449 -0.5001
vn 0.1898 -0.8449 0.5001
usemtl None
s off
f 72/110/50 74/111/50 75/112/50 73/113/50
f 74/111/51 78/114/51 79/115/51 75/112/51
f 78/114/52 76/116/52 77/117/52 79/115/52
f 76/116/53 72/118/53 73/119/53 77/117/53
f 74/120/54 72/121/54 76/116/54 78/114/54
f 79/115/55 77/117/55 73/122/55 75/123/55
o Cube.006_Cube.007
v -0.000601 0.423259 0.131869
v 0.007661 0.386478 0.153638
v -0.035922 0.429867 0.156441
v -0.027660 0.393086 0.178209
v -0.024667 0.400933 0.103279
v -0.016405 0.364152 0.125048
v -0.059988 0.407541 0.127851
v -0.051726 0.370759 0.149619
vt 0.375000 0.000000
vt 0.375000 0.250000
vt 0.625000 0.250000
vt 0.625000 0.000000
vt 0.375000 0.500000
vt 0.625000 0.500000
vt 0.375000 0.750000
vt 0.625000 0.750000
vt 0.375000 1.000000
vt 0.625000 1.000000
vt 0.125000 0.500000
vt 0.125000 0.750000
vt 0.875000 0.750000
vt 0.875000 0.500000
vn 0.5528 0.5129 0.6568
vn -0.8114 0.1518 0.5645
vn -0.5528 -0.5129 -0.6568
vn 0.8114 -0.1518 -0.5645
vn -0.1898 0.8449 -0.5001
vn 0.1898 -0.8449 0.5001
usemtl None
s off
f 80/124/56 82/125/56 83/126/56 81/127/56
f 82/125/57 86/128/57 87/129/57 83/126/57
f 86/128/58 84/130/58 85/131/58 87/129/58
f 84/130/59 80/132/59 81/133/59 85/131/59
f 82/134/60 80/135/60 84/130/60 86/128/60
f 87/129/61 85/131/61 81/136/61 83/137/61
o Cube.007_Cube.008
v 0.289525 0.423259 0.320891
v 0.297788 0.386478 0.342659
v 0.254204 0.429867 0.345463
v 0.262467 0.393086 0.367231
v 0.265460 0.400933 0.292301
v 0.273722 0.364152 0.314070
v 0.230139 0.407541 0.316873
v 0.238401 0.370759 0.338641
vt 0.375000 0.000000
vt 0.375000 0.250000
vt 0.625000 0.250000
vt 0.625000 0.000000
vt 0.375000 0.500000
vt 0.625000 0.500000
vt 0.375000 0.750000
vt 0.625000 0.750000
vt 0.375000 1.000000
vt 0.625000 1.000000
vt 0.125000 0.500000
vt 0.125000 0.750000
vt 0.875000 0.750000
vt 0.875000 0.500000
vn 0.5528 0.5129 0.6568
vn -0.8114 0.1518 0.5645
vn -0.5528 -0.5129 -0.6568
vn 0.8114 -0.1518 -0.5645
vn -0.1898 0.8449 -0.5001
vn 0.1898 -0.8449 0.5001
usemtl None
s off
f 88/138/62 90/139/62 91/140/62 89/141/62
f 90/139/63 94/142/63 95/143/63 91/140/63
f 94/142/64 92/144/64 93/145/64 95/143/64
f 92/144/65 88/146/65 89/147/65 93/145/65
f 90/148/66 88/149/66 92/144/66 94/142/66
f 95/143/67 93/145/67 89/150/67 91/151/67
o Cube.008_Cube.009
v 0.475215 0.444112 0.098673
v 0.479913 0.402149 0.088089
v 0.432029 0.440259 0.094777
v 0.436728 0.398296 0.084193
v 0.478034 0.455033 0.056628
v 0.482733 0.413069 0.046044
v 0.434849 0.451180 0.052732
v 0.439547 0.409217 0.042147
vt 0.375000 0.000000
vt 0.375000 0.250000
vt 0.625000 0.250000
vt 0.625000 0.000000
vt 0.375000 0.500000
vt 0.625000 0.500000
vt 0.375000 0.750000
vt 0.625000 0.750000
vt 0.375000 1.000000
vt 0.625000 1.000000
vt 0.125000 0.500000
vt 0.125000 0.750000
vt 0.875000 0.750000
vt 0.875000 0.500000
vn -0.0648 -0.2509 0.9659
vn -0.9920 -0.0885 -0.0895
vn 0.0648 0.2509 -0.9659
vn 0.9920 0.0885 0.0895
vn -0.1079 0.9640 0.2431
vn 0.1079 -0.9640 -0.2431
usemtl None
s off
f 96/152/68 98/153/68 99/154/68 97/155/68
f 98/153/69 102/156/69 103/157/69 99/154/69
f 102/156/70 100/158/70 101/159/70 103/157/70
f 100/158/71 96/160/71 97/161/71 101/159/71
f 98/162/72 96/163/72 100/158/72 102/156/72
f 103/157/73 101/159/73 97/164/73 99/165/73
o Cube.009_Cube.010
v -0.097873 0.423259 0.106683
v -0.089611 0.386478 0.128451
v -0.133194 0.429867 0.131254
v -0.124932 0.393086 0.153022
v -0.121939 0.400933 0.078093
v -0.113676 0.364152 0.099861
v -0.157260 0.407541 0.102664
v -0.148997 0.370759 0.124432
vt 0.375000 0.000000
vt 0.375000 0.250000
vt 0.625000 0.250000
vt 0.625000 0.000000
vt 0.375000 0.500000
vt 0.625000 0.500000
vt 0.375000 0.750000
vt 0.625000 0.750000
vt 0.375000 1.000000
vt 0.625000 1.000000
vt 0.125000 0.500000
vt 0.125000 0.750000
vt 0.875000 0.750000
vt 0.875000 0.500000
vn 0.5528 0.5129 0.6568
vn -0.8114 0.1518 0.5645
vn -0.5528 -0.5129 -0.6568
vn 0.8114 -0.1518 -0.5645
vn -0.1898 0.8449 -0.5001
vn 0.1898 -0.8449 0.5001
usemtl None
s off
f 104/166/74 106/167/74 107/168/74 105/169/74
f 106/167/75 110/170/75 111/171/75 107/168/75
f 110/170/76 108/172/76 109/173/76 111/171/76
f 108/172/77 104/174/77 105/175/77 109/173/77
f 106/176/78 104/177/78 108/172/78 110/170/78
f 111/171/79 109/173/79 105/178/79 107/179/79
o Cube.010_Cube.011
v 0.181517 0.567222 -0.282649
v 0.189779 0.530441 -0.260881
v 0.146196 0.573830 -0.258077
v 0.154458 0.537048 -0.236309
v 0.157452 0.544896 -0.311239
v 0.165714 0.508114 -0.289470
v 0.122130 0.551503 -0.286667
v 0.130393 0.514722 -0.264899
vt 0.375000 0.000000
vt 0.375000 0.250000
vt 0.625000 0.250000
vt 0.625000 0.000000
vt 0.375000 0.500000
vt 0.625000 0.500000
vt 0.375000 0.750000
vt 0.625000 0.750000
vt 0.375000 1.000000
vt 0.625000 1.000000
vt 0.125000 0.500000
vt 0.125000 0.750000
vt 0.875000 0.750000
vt 0.875000 0.500000
vn 0.5528 0.5129 0.6568
vn -0.8114 0.1518 0.5645
vn -0.5528 -0.5129 -0.6568
vn 0.8114 -0.1518 -0.5644
vn -0.1898 0.8449 -0.5001
vn 0.1898 -0.8449 0.5001
usemtl None
s off
f 112/180/80 114/181/80 115/182/80 113/183/80
f 114/181/81 118/184/81 119/185/81 115/182/81
f 118/184/82 116/186/82 117/187/82 119/185/82
f 116/186/83 112/188/83 113/189/83 117/187/83
f 114/190/84 112/191/84 116/186/84 118/184/84
f 119/185/85 117/187/85 113/192/85 115/193/85
o Cube.011_Cube.012
v 0.108595 0.662408 -0.114017
v 0.116857 0.625627 -0.092248
v 0.073274 0.669016 -0.089445
v 0.081536 0.632235 -0.067677
v 0.084530 0.640082 -0.142607
v 0.092792 0.603301 -0.120838
v 0.049208 0.646690 -0.118035
v 0.057471 0.609908 -0.096267
vt 0.375000 0.000000
vt 0.375000 0.250000
vt 0.625000 0.250000
vt 0.625000 0.000000
vt 0.375000 0.500000
vt 0.625000 0.500000
vt 0.375000 0.750000
vt 0.625000 0.750000
vt 0.375000 1.000000
vt 0.625000 1.000000
vt 0.125000 0.500000
vt 0.125000 0.750000
vt 0.875000 0.750000
vt 0.875000 0.500000
vn 0.5528 0.5129 0.6568
vn -0.8114 0.1518 0.5645
vn -0.5528 -0.5129 -0.6568
vn 0.8114 -0.1518 -0.5645
vn -0.1898 0.8449 -0.5001
vn 0.1898 -0.8449 0.5001
usemtl None
s off
f 120/194/86 122/195/86 123/196/86 121/197/86
f 122/195/87 126/198/87 127/199/87 123/196/87
f 126/198/88 124/200/88 125/201/88 127/199/88
f 124/200/89 120/202/89 121/203/89 125/201/89
f 122/204/90 120/205/90 124/200/90 126/198/90
f 127/199/91 125/201/91 121/206/91 123/207/91
o Cube.012_Cube.013
v -0.017727 0.657494 0.138314
v -0.011011 0.627598 0.156008
v -0.046436 0.662865 0.158286
v -0.039720 0.632969 0.175979
v -0.037287 0.639347 0.115076
v -0.030572 0.609451 0.132770
v -0.065997 0.644718 0.135048
v -0.059281 0.614822 0.152741
vt 0.375000 0.000000
vt 0.375000 0.250000
vt 0.625000 0.250000
vt 0.625000 0.000000
vt 0.375000 0.500000
vt 0.625000 0.500000
vt 0.375000 0.750000
vt 0.625000 0.750000
vt 0.375000 1.000000
vt 0.625000 1.000000
vt 0.125000 0.500000
vt 0.125000 0.750000
vt 0.875000 0.750000
vt 0.875000 0.500000
vn 0.5528 0.5129 0.6568
vn -0.8114 0.1518 0.5645
vn -0.5528 -0.5129 -0.6568
vn 0.8114 -0.1518 -0.5645
vn -0.1898 0.8449 -0.5001
vn 0.1898 -0.8449 0.5001
usemtl None
s off
f 128/208/92 130/209/92 131/210/92 129/211/92
f 130/209/93 134/212/93 135/213/93 131/210/93
f 134/212/94 132/214/94 133/215/94 135/213/94
f 132/214/95 128/216/95 129/217/95 133/215/95
f 130/218/96 128/219/96 132/214/96 134/212/96
f 135/213/97 133/215/97 129/220/97 131/221/97
o Cube.013_Cube.014
v -0.259728 0.561853 0.292424
v -0.251466 0.525072 0.314192
v -0.295050 0.568461 0.316995
v -0.286787 0.531680 0.338763
v -0.283794 0.539527 0.263834
v -0.275532 0.502745 0.285602
v -0.319115 0.546135 0.288405
v -0.310853 0.509353 0.310173
vt 0.375000 0.000000
vt 0.375000 0.250000
vt 0.625000 0.250000
vt 0.625000 0.000000
vt 0.375000 0.500000
vt 0.625000 0.500000
vt 0.375000 0.750000
vt 0.625000 0.750000
vt 0.375000 1.000000
vt 0.625000 1.000000
vt 0.125000 0.500000
vt 0.125000 0.750000
vt 0.875000 0.750000
vt 0.875000 0.500000
vn 0.5528 0.5129 0.6568
vn -0.8114 0.1518 0.5644
vn -0.5528 -0.5129 -0.6568
vn 0.8114 -0.1518 -0.5644
vn -0.1898 0.8449 -0.5001
vn 0.1898 -0.8449 0.5001
usemtl None
s off
f 136/222/98 138/223/98 139/224/98 137/225/98
f 138/223/99 142/226/99 143/227/99 139/224/99
f 142/226/100 140/228/100 141/229/100 143/227/100
f 140/228/101 136/230/101 137/231/101 141/229/101
f 138/232/102 136/233/102 140/228/102 142/226/102
f 143/227/103 141/229/103 137/234/103 139/235/103
