# Blender v3.3.0 OBJ File: 'burger.blend'
# www.blender.org
mtllib burger_bottom.mtl
o Cube.001
v -1.000000 0.269892 -1.000000
v -0.572164 -0.281717 -0.572164
v -1.000000 0.269891 1.000000
v -0.572164 -0.281717 0.572163
v 1.000000 0.269892 -1.000000
v 0.572164 -0.281717 -0.572164
v 1.000000 0.269891 1.000000
v 0.572164 -0.281717 0.572163
v -1.319178 0.269892 0.000000
v -0.890617 0.000000 -0.841395
v -0.572164 -0.279085 0.000895
v -0.857802 -0.000000 0.830456
v 0.000000 0.269891 1.377927
v 0.000000 -0.279085 0.573058
v 0.841395 -0.000000 0.901555
v 1.319178 0.269892 0.000000
v 0.572164 -0.279085 0.000895
v 0.879679 0.000000 -0.852333
v 0.000000 0.269892 -1.377927
v 0.000000 -0.279084 -0.571269
v 0.000000 -0.334599 0.015192
v 0.000000 0.269892 0.000000
v 0.000000 0.000000 -1.000000
v 1.000000 0.000000 0.000000
v 0.000000 -0.000000 1.000000
v -1.000000 0.000000 0.000000
vt 0.500000 0.125000
vt 0.625000 0.125000
vt 0.625000 0.250000
vt 0.500000 0.250000
vt 0.500000 0.375000
vt 0.625000 0.375000
vt 0.625000 0.500000
vt 0.500000 0.500000
vt 0.500000 0.625000
vt 0.625000 0.625000
vt 0.625000 0.750000
vt 0.500000 0.750000
vt 0.500000 0.875000
vt 0.625000 0.875000
vt 0.625000 1.000000
vt 0.500000 1.000000
vt 0.250000 0.625000
vt 0.375000 0.625000
vt 0.375000 0.750000
vt 0.250000 0.750000
vt 0.750000 0.625000
vt 0.875000 0.625000
vt 0.875000 0.750000
vt 0.750000 0.750000
vt 0.750000 0.500000
vt 0.875000 0.500000
vt 0.125000 0.625000
vt 0.125000 0.750000
vt 0.125000 0.500000
vt 0.250000 0.500000
vt 0.375000 0.500000
vt 0.375000 0.875000
vt 0.375000 1.000000
vt 0.375000 0.375000
vt 0.375000 0.250000
vt 0.375000 0.125000
vt 0.375000 0.000000
vt 0.500000 0.000000
vt 0.625000 0.000000
vn -0.6035 -0.7952 0.0597
vn 0.0397 -0.8093 0.5860
vn 0.5939 -0.8031 -0.0486
vn -0.0640 -0.7920 -0.6071
vn -0.0000 1.0000 0.0000
vn -0.0455 -0.9979 -0.0455
vn 0.0455 -0.9979 -0.0455
vn 0.0467 -0.9978 0.0467
vn -0.0467 -0.9978 0.0467
vn -0.1919 -0.7112 -0.6763
vn 0.1906 -0.7063 -0.6817
vn 0.0595 -0.7953 -0.6033
vn 0.7394 -0.6500 -0.1754
vn 0.7198 -0.6702 0.1809
vn 0.6071 -0.7921 0.0640
vn 0.1836 -0.6802 0.7096
vn -0.1952 -0.7233 0.6624
vn -0.0717 -0.7863 0.6136
vn -0.7188 -0.6713 0.1812
vn -0.7458 -0.6431 -0.1736
vn -0.5899 -0.8063 -0.0441
usemtl None
s off
f 26/1/1 11/2/1 4/3/1 12/4/1
f 25/5/2 14/6/2 8/7/2 15/8/2
f 24/9/3 17/10/3 6/11/3 18/12/3
f 23/13/4 20/14/4 2/15/4 10/16/4
f 22/17/5 16/18/5 5/19/5 19/20/5
f 21/21/6 11/22/6 2/23/6 20/24/6
f 17/10/7 21/21/7 20/24/7 6/11/7
f 8/7/8 14/25/8 21/21/8 17/10/8
f 14/25/9 4/26/9 11/22/9 21/21/9
f 9/27/5 22/17/5 19/20/5 1/28/5
f 3/29/5 13/30/5 22/17/5 9/27/5
f 13/30/5 7/31/5 16/18/5 22/17/5
f 19/32/10 23/13/10 10/16/10 1/33/10
f 5/19/11 18/12/11 23/13/11 19/32/11
f 18/12/12 6/11/12 20/14/12 23/13/12
f 16/18/13 24/9/13 18/12/13 5/19/13
f 7/31/14 15/8/14 24/9/14 16/18/14
f 15/8/15 8/7/15 17/10/15 24/9/15
f 13/34/16 25/5/16 15/8/16 7/31/16
f 3/35/17 12/4/17 25/5/17 13/34/17
f 12/4/18 4/3/18 14/6/18 25/5/18
f 9/36/19 26/1/19 12/4/19 3/35/19
f 1/37/20 10/38/20 26/1/20 9/36/20
f 10/38/21 2/39/21 11/2/21 26/1/21
